<svg width="56" height="56" viewBox="0 0 56 56" fill="none" xmlns="http://www.w3.org/2000/svg">
<path d="M0.992188 8.0684C0.992188 6.79367 0.992188 5.51894 0.992188 4.24421C4.24582 4.24421 7.48601 4.24421 10.7934 4.24421C10.7934 2.77759 10.7934 1.3795 10.7934 0.00881958C22.5441 0.00881958 34.2411 0.00881958 45.9918 0.00881958C45.9918 1.42062 45.9918 2.81871 45.9918 4.27163C49.353 4.27163 52.647 4.27163 55.9409 4.27163C56.1426 6.58807 55.793 10.5904 55.2956 12.6328C54.1393 17.4438 51.6789 21.4599 48.0757 24.7221C45.696 26.8741 43.1146 28.793 40.6542 30.8353C39.8341 31.507 38.9871 32.1923 38.3417 33.0284C36.1771 35.7835 33.7033 38.1822 30.8396 40.1559C30.7051 40.2519 30.5572 40.4164 30.5438 40.5534C30.5169 41.6774 30.5303 42.8014 30.5303 43.9801C31.0009 43.9801 31.4042 43.9664 31.8076 43.9801C36.204 44.1035 39.861 47.1053 40.9635 51.4366C41.3534 52.9444 41.2324 54.4795 41.2592 56.001C32.668 56.001 24.0768 56.001 15.4856 56.001C15.4856 55.11 15.4722 54.2191 15.5125 53.3282C15.7142 48.6267 19.2905 44.6655 23.8752 44.0761C24.6415 43.9801 25.4348 43.9664 26.228 43.9116C26.228 42.8562 26.2146 41.8419 26.2415 40.8276C26.2549 40.4712 26.1339 40.2656 25.8516 40.0737C23.8886 38.7304 22.0736 37.1953 20.4736 35.4134C19.6266 34.4813 18.9275 33.3848 17.9998 32.5487C16.131 30.8628 14.1546 29.2865 12.2051 27.6965C10.2153 26.0654 8.25236 24.3795 6.59865 22.3783C3.99037 19.2668 2.22911 15.7579 1.50309 11.7418C1.28797 10.5219 1.16697 9.2883 0.992188 8.0684ZM15.0689 4.36757C15.0689 4.55947 15.0554 4.71024 15.0689 4.84731C15.2033 7.28712 15.2974 9.72692 15.4991 12.153C15.7545 15.3193 16.3596 18.4307 17.3141 21.4599C19.2636 27.5868 22.7458 32.5624 27.9624 36.2495C28.1775 36.4003 28.3388 36.5785 28.6481 36.3455C31.3101 34.4813 33.5957 32.2197 35.478 29.5332C37.9787 25.9831 39.4845 21.9945 40.3853 17.7591C41.313 13.4277 41.555 9.02788 41.6491 4.61429C41.6491 4.53205 41.6223 4.44981 41.5954 4.35387C32.7756 4.36757 23.9558 4.36757 15.0689 4.36757ZM43.5314 22.8854C48.0623 19.2257 51.0874 14.6888 51.5579 8.63038C49.6488 8.63038 47.78 8.63038 45.8574 8.63038C45.5885 13.4826 44.9834 18.2525 43.5314 22.8854ZM13.2 22.8032C11.748 18.184 11.1564 13.4552 10.901 8.64409C9.0456 8.64409 7.23056 8.64409 5.40207 8.64409C5.85919 14.6202 8.76326 19.1435 13.2 22.8032ZM36.4595 51.6011C36.4191 51.4914 36.4057 51.4229 36.3788 51.3681C35.357 49.4354 33.7571 48.4074 31.6194 48.3663C29.4547 48.3115 27.2901 48.3389 25.1255 48.3663C23.8483 48.38 22.7055 48.7912 21.724 49.641C21.1056 50.1756 20.5812 50.7924 20.2854 51.6148C25.7037 51.6011 31.0681 51.6011 36.4595 51.6011Z" fill="url(#paint0_linear_1047_4659)"/>
<path d="M21.4413 15.306C22.8799 15.1004 24.3051 14.8811 25.7436 14.6892C26.0932 14.6481 26.2949 14.4973 26.4562 14.1684C27.0747 12.8525 27.7335 11.5641 28.4191 10.1934C28.5402 10.399 28.6208 10.5361 28.7015 10.6868C29.2796 11.8382 29.8577 12.9896 30.409 14.1546C30.5703 14.511 30.7989 14.6618 31.1619 14.7029C32.587 14.8948 34.0122 15.1141 35.4373 15.3197C35.4776 15.3745 35.518 15.4294 35.5583 15.4842C35.3835 15.6213 35.1819 15.7309 35.0205 15.8954C34.1063 16.7726 33.192 17.6499 32.3181 18.5545C32.1702 18.7053 32.0627 19.0343 32.103 19.2536C32.3047 20.5694 32.5467 21.8716 32.7752 23.1874C32.8021 23.3245 32.7887 23.4752 32.8021 23.6946C32.3854 23.4752 32.0223 23.2971 31.6593 23.1052C30.7854 22.6528 29.8981 22.2142 29.0511 21.7208C28.6343 21.4741 28.3116 21.4741 27.8814 21.7071C26.8192 22.3102 25.7302 22.8584 24.6412 23.4204C24.4798 23.5027 24.3185 23.5712 24.0765 23.6946C24.1034 23.4341 24.1303 23.2422 24.1572 23.0503C24.3723 21.7619 24.6143 20.4735 24.816 19.1713C24.8428 18.9794 24.7353 18.7053 24.6008 18.5682C23.6731 17.6362 22.7186 16.7178 21.7774 15.7995C21.6564 15.6761 21.4816 15.6076 21.3203 15.5253C21.3338 15.4431 21.3875 15.3745 21.4413 15.306Z" fill="url(#paint1_linear_1047_4659)"/>
<defs>
<linearGradient id="paint0_linear_1047_4659" x1="0.992187" y1="28.0049" x2="55.999" y2="28.0049" gradientUnits="userSpaceOnUse">
<stop stop-color="#01CE87"/>
<stop offset="1" stop-color="#00BF7D"/>
</linearGradient>
<linearGradient id="paint1_linear_1047_4659" x1="21.3203" y1="16.944" x2="35.5583" y2="16.944" gradientUnits="userSpaceOnUse">
<stop stop-color="#01CE87"/>
<stop offset="1" stop-color="#00BF7D"/>
</linearGradient>
</defs>
</svg>
