<svg width="58" height="56" viewBox="0 0 58 56" fill="none" xmlns="http://www.w3.org/2000/svg">
<path d="M20.4608 55.8033C14.2551 55.8033 8.04942 55.8033 1.82873 55.8033C0.479668 55.3674 0.0149896 54.4375 0.0149896 53.0862C0.0599585 47.6811 0.0299792 42.2615 0.0299792 36.8564C0.0299792 35.1419 0.869398 34.3137 2.62318 34.3137C7.86955 34.3137 13.1309 34.3137 18.3773 34.3282C18.797 34.3282 19.0968 34.212 19.4116 33.9214C24.1932 29.2719 28.93 24.5787 33.7866 20.0018C34.9558 18.8976 35.5704 17.8224 35.3605 16.2386C35.2256 15.1925 35.3305 14.1027 35.3305 13.013C30.9086 13.013 26.5466 13.013 22.1397 13.013C22.1397 13.26 22.1397 13.4489 22.1397 13.6523C22.1397 15.454 22.1397 17.2412 22.1397 19.0429C22.1397 20.6993 21.2853 21.5275 19.5914 21.5275C13.9104 21.5275 8.2293 21.5275 2.54823 21.5275C0.869398 21.5275 0.0149896 20.6702 0.0149896 19.0429C0.0149896 13.5942 0.0299792 8.14551 0 2.69683C0.0299792 1.33103 0.524637 0.444714 1.84372 0.00881958C8.04942 0.00881958 14.2551 0.00881958 20.4758 0.00881958C21.7799 0.502833 22.2596 1.43274 22.1996 2.78401C22.1247 4.49853 22.1846 6.22758 22.1846 7.95663C22.1846 8.14551 22.1846 8.34893 22.1846 8.53782C26.6216 8.53782 30.9685 8.53782 35.3755 8.53782C35.3755 6.59082 35.4354 4.67289 35.3605 2.78401C35.3155 1.44727 35.7802 0.502833 37.0843 0.00881958C43.29 0.00881958 49.4957 0.00881958 55.7164 0.00881958C56.6308 0.284886 57.2303 0.866078 57.5152 1.7524C57.5152 7.78227 57.5152 13.8121 57.5152 19.842C56.9905 21.1352 56.0012 21.542 54.6072 21.5275C49.4358 21.4693 44.2493 21.4984 39.0779 21.5275C38.7931 21.5275 38.4484 21.6582 38.2535 21.8471C33.0071 26.918 27.7758 32.0035 22.5444 37.1034C22.3495 37.2923 22.2146 37.6265 22.2146 37.9026C22.1846 39.3701 22.1996 40.8376 22.1996 42.3196C22.1996 42.494 22.1996 42.6683 22.1996 42.8572C26.6216 42.8572 30.9685 42.8572 35.3905 42.8572C35.3905 42.6247 35.3905 42.4359 35.3905 42.247C35.3905 40.3726 35.3755 38.5128 35.3905 36.6385C35.4055 35.2291 36.2899 34.3428 37.7289 34.3428C43.5448 34.3282 49.3608 34.3428 55.1618 34.3428C56.256 34.3428 57.0055 34.8368 57.3952 35.8248C57.4252 35.8829 57.4702 35.941 57.5152 35.9992C57.5152 42.029 57.5152 48.0589 57.5152 54.0888C57.2303 54.9751 56.6308 55.5563 55.7164 55.8323C49.5107 55.8323 43.305 55.8323 37.0843 55.8323C35.7502 55.3238 35.2856 54.3648 35.3605 52.999C35.4354 51.299 35.3755 49.5845 35.3755 47.8845C35.3755 47.6957 35.3755 47.4922 35.3755 47.2888C30.9386 47.2888 26.5916 47.2888 22.1846 47.2888C22.1846 47.5358 22.1846 47.7392 22.1846 47.9281C22.1846 49.8025 22.1846 51.6623 22.1846 53.5366C22.1846 54.2777 21.9298 54.8879 21.3302 55.3383C21.0604 55.5127 20.7606 55.6435 20.4608 55.8033ZM17.6428 17.1104C17.6428 12.8386 17.6428 8.61047 17.6428 4.39682C13.2658 4.39682 8.91882 4.39682 4.55684 4.39682C4.55684 8.65406 4.55684 12.8677 4.55684 17.1104C8.93381 17.1104 13.2808 17.1104 17.6428 17.1104ZM52.9733 17.1104C52.9733 12.8241 52.9733 8.61047 52.9733 4.39682C48.5963 4.39682 44.2493 4.39682 39.8874 4.39682C39.8874 8.63953 39.8874 12.8677 39.8874 17.1104C44.2643 17.1104 48.5963 17.1104 52.9733 17.1104ZM4.57183 38.7017C4.57183 42.988 4.57183 47.2016 4.57183 51.4153C8.9488 51.4153 13.2958 51.4153 17.6578 51.4153C17.6578 47.1726 17.6578 42.9444 17.6578 38.7017C13.2808 38.7017 8.93381 38.7017 4.57183 38.7017ZM52.9883 38.7017C48.5963 38.7017 44.2493 38.7017 39.8724 38.7017C39.8724 42.9589 39.8724 47.1726 39.8724 51.4008C44.2643 51.4008 48.6113 51.4008 52.9883 51.4008C52.9883 47.1581 52.9883 42.9589 52.9883 38.7017Z" fill="url(#paint0_linear_1047_4628)"/>
<defs>
<linearGradient id="paint0_linear_1047_4628" x1="-4.28521e-07" y1="27.9206" x2="57.5152" y2="27.9206" gradientUnits="userSpaceOnUse">
<stop stop-color="#01CE87"/>
<stop offset="1" stop-color="#00BF7D"/>
</linearGradient>
</defs>
</svg>
